<svg width="55" height="44" viewBox="0 0 55 44" fill="none" xmlns="http://www.w3.org/2000/svg">
<g clip-path="url(#clip0_58_337)">
<path d="M52.9375 0H36.4375C35.3045 0 33.7178 0.65725 32.9175 1.4575L12.4603 21.9147C12.2686 22.1063 12.1166 22.3337 12.0128 22.584C11.9091 22.8344 11.8557 23.1027 11.8557 23.3736C11.8557 23.6446 11.9091 23.9129 12.0128 24.1632C12.1166 24.4135 12.2686 24.641 12.4603 24.8325L30.1675 42.5397C30.3591 42.7314 30.5865 42.8834 30.8368 42.9872C31.0871 43.0909 31.3554 43.1443 31.6264 43.1443C31.8974 43.1443 32.1657 43.0909 32.416 42.9872C32.6663 42.8834 32.8937 42.7314 33.0853 42.5397L53.5425 22.0825C54.3455 21.2795 55 19.6955 55 18.5625V2.0625C55 1.51549 54.7827 0.990886 54.3959 0.604092C54.0091 0.217298 53.4845 0 52.9375 0ZM42.625 16.5C42.0831 16.4998 41.5466 16.3929 41.046 16.1854C40.5455 15.9778 40.0907 15.6737 39.7076 15.2904C39.3246 14.9071 39.0208 14.4522 38.8136 13.9515C38.6064 13.4507 38.4998 12.9141 38.5 12.3723C38.5002 11.8304 38.6071 11.2938 38.8147 10.7933C39.0222 10.2927 39.3263 9.83791 39.7096 9.45487C40.0929 9.07182 40.5479 8.76803 41.0486 8.56083C41.5493 8.35362 42.0859 8.24707 42.6278 8.24725C43.7222 8.24761 44.7716 8.68271 45.5452 9.45681C46.3187 10.2309 46.7531 11.2806 46.7528 12.375C46.7524 13.4694 46.3173 14.5188 45.5432 15.2924C44.7691 16.066 43.7194 16.5004 42.625 16.5Z" fill="#101010"/>
<path d="M5.50002 23.375L28.875 0H25.4375C24.3045 0 22.7178 0.65725 21.9175 1.4575L1.46027 21.9147C1.26861 22.1063 1.11657 22.3337 1.01284 22.584C0.909105 22.8344 0.855713 23.1027 0.855713 23.3736C0.855713 23.6446 0.909105 23.9129 1.01284 24.1632C1.11657 24.4135 1.26861 24.641 1.46027 24.8325L19.1675 42.5397C19.3591 42.7314 19.5865 42.8834 19.8368 42.9872C20.0871 43.0909 20.3554 43.1443 20.6264 43.1443C20.8974 43.1443 21.1657 43.0909 21.416 42.9872C21.6663 42.8834 21.8937 42.7314 22.0853 42.5397L23.3778 41.2472L5.50002 23.375Z" fill="#101010"/>
</g>
<defs>
<clipPath id="clip0_58_337">
<rect width="55" height="44" fill="white"/>
</clipPath>
</defs>
</svg>
