<svg width="55" height="55" viewBox="0 0 55 55" fill="none" xmlns="http://www.w3.org/2000/svg">
<path d="M42.0842 12.9158L33.9808 21.0192M42.0842 12.9158C38.2162 9.0479 32.9701 6.875 27.5 6.875C22.0299 6.875 16.7838 9.0479 12.9158 12.9158M42.0842 12.9158C45.9521 16.7838 48.125 22.0299 48.125 27.5C48.125 30.2085 47.5915 32.8905 46.555 35.3928C45.5185 37.8952 43.9994 40.169 42.0842 42.0842M33.9808 21.0192C32.2618 19.3001 29.9312 18.3333 27.5 18.3333C25.0688 18.3333 22.7383 19.3001 21.0192 21.0192M33.9808 21.0192C35.6999 22.7383 36.6667 25.0688 36.6667 27.5C36.6667 29.9312 35.6999 32.2618 33.9808 33.9808M33.9808 33.9808L42.0842 42.0842M33.9808 33.9808C32.2618 35.6999 29.9312 36.6667 27.5 36.6667C25.0688 36.6667 22.7383 35.6999 21.0192 33.9808M42.0842 42.0842C40.169 43.9994 37.8952 45.5185 35.3928 46.555C32.8905 47.5915 30.2085 48.125 27.5 48.125C24.7915 48.125 22.1095 47.5915 19.6072 46.555C17.1048 45.5185 14.831 43.9994 12.9158 42.0842M21.0192 21.0192L12.9158 12.9158M21.0192 21.0192C19.3001 22.7383 18.3333 25.0688 18.3333 27.5C18.3333 29.9312 19.3001 32.2618 21.0192 33.9808M12.9158 12.9158C9.0479 16.7838 6.875 22.0299 6.875 27.5C6.875 30.2085 7.40848 32.8905 8.44498 35.3928C9.48149 37.8952 11.0006 40.169 12.9158 42.0842M21.0192 33.9808L12.9158 42.0842" stroke="#101010" stroke-width="4" stroke-linecap="round" stroke-linejoin="round"/>
</svg>
