<svg width="22" height="14" viewBox="0 0 22 14" fill="none" xmlns="http://www.w3.org/2000/svg">
<path fill-rule="evenodd" clip-rule="evenodd" d="M15.2914 0.230986C15.4787 0.394453 15.5933 0.6256 15.6102 0.873602C15.6271 1.1216 15.5448 1.36616 15.3814 1.55349L5.56015 12.8035C5.47215 12.9043 5.3636 12.9851 5.24178 13.0404C5.11996 13.0958 4.9877 13.1245 4.8539 13.1245C4.72009 13.1245 4.58783 13.0958 4.46602 13.0404C4.3442 12.9851 4.23564 12.9043 4.14765 12.8035L0.218897 8.30349C0.0613029 8.11539 -0.0162633 7.87301 0.00285037 7.62837C0.021964 7.38373 0.136234 7.15634 0.321128 6.995C0.506023 6.83367 0.746803 6.75126 0.991777 6.76547C1.23675 6.77967 1.46639 6.88936 1.6314 7.07099L4.8539 10.7622L13.9689 0.320986C14.1324 0.133721 14.3635 0.0190424 14.6115 0.00216517C14.8595 -0.0147121 15.1041 0.0675942 15.2914 0.230986ZM21.5726 0.337236C21.9476 0.693486 21.9614 1.28724 21.6039 1.66224L10.8901 12.9122C10.7966 13.0105 10.6828 13.0873 10.5566 13.1373C10.4305 13.1873 10.295 13.2093 10.1595 13.2018C10.024 13.1943 9.89172 13.1575 9.77184 13.0939C9.65197 13.0303 9.54733 12.9415 9.46515 12.8335L8.9289 12.1297C8.78843 11.9466 8.72044 11.7181 8.73795 11.488C8.75546 11.2579 8.85725 11.0423 9.02381 10.8825C9.19038 10.7228 9.41002 10.6301 9.64068 10.6222C9.87133 10.6143 10.0968 10.6917 10.2739 10.8397L20.2464 0.368486C20.4178 0.188544 20.6537 0.0840391 20.9022 0.0779447C21.1506 0.0718504 21.3913 0.164665 21.5714 0.335986" fill="#025142"/>
</svg>
