<svg width="42" height="38" viewBox="0 0 42 38" fill="none" xmlns="http://www.w3.org/2000/svg">
<path d="M18.1429 2.99509C10.9561 7.59684 7.36269 13.1388 7.36269 19.6209C7.36269 21.6376 7.71382 22.646 8.41607 22.646L9.13901 22.4506C9.70738 22.2315 10.1674 22.122 10.5192 22.122C12.5785 22.122 14.2976 22.8705 15.6765 24.3675C17.0555 25.8645 17.7455 27.712 17.7468 29.9101C17.7455 32.0229 17.0001 33.8163 15.5104 35.2901C14.0207 36.7628 12.2243 37.4991 10.1212 37.4991C7.18561 37.4991 4.76363 36.2924 2.85526 33.8789C0.951753 31.4691 1.37058e-06 28.4404 1.37058e-06 24.7929C-0.0012157 20.667 0.808138 16.8922 2.42806 13.4686C4.05164 10.0462 6.52717 6.95179 9.85465 4.18539C13.1846 1.42141 15.3096 0.0388147 16.2297 0.0375977C16.8431 0.0375977 17.347 0.333347 17.7413 0.924845C18.1356 1.51513 18.3328 2.02934 18.3328 2.46749L18.1374 2.99326L18.1429 2.99509ZM41.8028 2.99509C34.616 7.59563 31.0232 13.1382 31.0244 19.6227C31.0244 21.6394 31.3756 22.6478 32.0778 22.6478L32.8007 22.4524C33.3691 22.2334 33.8292 22.1238 34.1809 22.1238C36.1964 22.1238 37.9045 22.8723 39.3054 24.3693C40.7087 25.8639 41.4097 27.7114 41.4085 29.9119C41.4073 32.0247 40.6618 33.8181 39.1721 35.292C37.6824 36.7646 35.886 37.501 33.7829 37.501C30.8473 37.501 28.4254 36.2942 26.517 33.8808C24.6135 31.471 23.6617 28.4423 23.6617 24.7947C23.6593 20.625 24.4808 16.818 26.1263 13.3737C27.7694 9.92815 30.2443 6.84469 33.5511 4.12331C36.8639 1.40072 38.9786 0.039424 39.8951 0.039424C40.5097 0.039424 41.0148 0.335172 41.4103 0.92667C41.8034 1.51817 42 2.03299 42 2.47114L41.8028 2.99509Z" fill="#025142"/>
</svg>
